<svg xmlns="http://www.w3.org/2000/svg" aria-hidden="true" style="position:absolute;width:0;height:0;overflow:hidden"><defs><symbol id="icon-facebook" viewBox="0 0 32 32"><path fill="#fff" d="M18.16 31.937h-5.135a1.555 1.555 0 0 1-1.555-1.552V18.826H8.474a1.555 1.555 0 0 1-1.555-1.552v-4.953c0-.856.698-1.552 1.555-1.552h2.996v-2.48c0-2.459.774-4.551 2.237-6.05 1.47-1.506 3.525-2.301 5.942-2.301l3.916.006a1.556 1.556 0 0 1 1.553 1.552v4.599c0 .856-.697 1.552-1.555 1.552l-2.636.001c-.804 0-1.009.161-1.053.21-.072.082-.158.313-.158.951v1.959h3.649a1.557 1.557 0 0 1 1.57 1.553l-.002 4.953c0 .855-.698 1.552-1.555 1.552h-3.661v11.559c0 .856-.698 1.552-1.556 1.552zm-4.81-1.875h4.486V17.987c0-.572.466-1.036 1.038-1.036h4.179l.002-4.305h-4.18a1.039 1.039 0 0 1-1.038-1.036V8.811c0-.733.075-1.566.629-2.193.67-.757 1.725-.845 2.461-.845l2.312-.001V1.82l-3.59-.006c-3.884 0-6.298 2.481-6.298 6.476v3.32c0 .571-.466 1.036-1.038 1.036H8.8v4.305h3.513c.572 0 1.038.465 1.038 1.036v12.075zM23.562 1.82z" style="fill:var(--color1, #fff)"/></symbol><symbol id="icon-instagram" viewBox="0 0 32 32"><path fill="#fff" d="M23.338 0H8.662C3.886 0 0 3.886 0 8.662v14.676C0 28.114 3.886 32 8.662 32h14.676C28.114 32 32 28.114 32 23.338V8.662C32 3.886 28.114 0 23.338 0zm6.786 23.338a6.793 6.793 0 0 1-6.786 6.786H8.662a6.793 6.793 0 0 1-6.786-6.786V8.662a6.793 6.793 0 0 1 6.786-6.786h14.676a6.793 6.793 0 0 1 6.786 6.786v14.676z" style="fill:var(--color1, #fff)"/><path fill="#fff" d="M16 7.25c-4.825 0-8.75 3.925-8.75 8.75s3.925 8.75 8.75 8.75 8.75-3.925 8.75-8.75S20.825 7.25 16 7.25zm0 15.624c-3.79 0-6.874-3.084-6.874-6.874S12.21 9.126 16 9.126c3.79 0 6.874 3.084 6.874 6.874S19.79 22.874 16 22.874zM24.959 4.143c-1.426 0-2.585 1.16-2.585 2.585s1.16 2.586 2.585 2.586c1.426 0 2.586-1.16 2.586-2.586s-1.16-2.585-2.586-2.585zm0 3.295a.71.71 0 1 1 .001-1.42.71.71 0 0 1-.001 1.42z" style="fill:var(--color1, #fff)"/></symbol><symbol id="icon-twitter" viewBox="0 0 32 32"><path fill="#fff" d="M12.176 29.232c-5.341 0-9.562-.933-11.582-2.56l-.039-.032-.036-.036c-.48-.48-.637-1.11-.431-1.727l.019-.051a1.674 1.674 0 0 1 1.526-1.05c1.366-.024 2.562-.186 3.646-.503-1.73-.805-2.932-2.198-3.647-4.215-.24-.629-.033-1.326.521-1.742.137-.103.291-.18.455-.232-.961-1.11-1.672-2.373-2.069-3.708l-.012-.041-.009-.042c-.135-.676.167-1.37.72-1.669.232-.133.484-.202.738-.208a7.808 7.808 0 0 1-.589-1.799c-.327-1.683-.057-3.369.801-5.013l.198-.397a1.11 1.11 0 0 1 1.773-.288l.362.362c2.856 2.995 5.415 4.416 9.839 5.388a7.847 7.847 0 0 1 2.116-4.519c1.409-1.478 3.292-2.307 5.3-2.336h.013c1.465 0 3.282.836 4.382 1.426.943-.309 2.079-.786 3.258-1.292a1.489 1.489 0 0 1 1.665.293c.425.425.543 1.024.317 1.607a7.975 7.975 0 0 1-.291.702c.161.074.309.174.434.299.377.377.535.968.4 1.504l-.014.051c-.452 1.456-1.319 2.641-2.467 3.385-.192 10.205-7.877 18.442-17.296 18.442zm-9.782-3.605c1.903 1.077 5.53 1.728 9.782 1.728 4.088 0 7.946-1.755 10.863-4.942 2.941-3.213 4.56-7.48 4.56-12.015v-.051c0-.411.226-.785.59-.978.738-.391 1.336-1.057 1.724-1.908a1.103 1.103 0 0 1-1.058-.433 1.103 1.103 0 0 1-.008-1.31c.154-.212.294-.433.418-.662-1.018.428-1.984.811-2.823 1.065a1.203 1.203 0 0 1-.923-.099c-1.494-.832-2.885-1.33-3.724-1.332-3.096.047-5.612 2.698-5.612 5.913a1.106 1.106 0 0 1-1.321 1.086c-5.101-1.005-8.123-2.512-11.266-5.67-.45 1.079-.574 2.167-.365 3.24.211 1.087.773 2.177 1.625 3.151.324.37.367.898.107 1.316-.259.416-.751.61-1.224.483a5.085 5.085 0 0 1-1.032-.396c.656 1.426 1.786 2.745 3.205 3.717a1.108 1.108 0 0 1-.708 2.016 4.973 4.973 0 0 1-1.469-.318c.796 1.621 2.068 2.513 4.027 2.853a1.107 1.107 0 0 1 .329 2.069c-1.67.885-3.495 1.36-5.696 1.477z" style="fill:var(--color1, #fff)"/></symbol></defs></svg>