<svg xmlns="http://www.w3.org/2000/svg" aria-hidden="true" style="position:absolute;width:0;height:0;overflow:hidden"><defs><symbol id="icon-arrow" viewBox="0 0 32 32"><path d="M0 22.667V9.334A9.333 9.333 0 0 1 9.333.001h13.333a9.333 9.333 0 0 1 9.333 9.333v13.333A9.333 9.333 0 0 1 22.666 32H9.333A9.333 9.333 0 0 1 0 22.667z"/><path stroke-linecap="square" stroke-width="2.133" d="m18.667 16-5.333-4 4.667 4m.666 0-5.333 4 4.667-4m.666 0H18"/></symbol><symbol id="icon-button" viewBox="0 0 32 32"><path d="M1.143 0h29.714C31.488 0 32 .512 32 1.143v29.714c0 .631-.512 1.143-1.143 1.143H1.143A1.143 1.143 0 0 1 0 30.857V1.143C0 .512.512 0 1.143 0z"/><path d="M22.313 10.05 9.142 15.378v.77l3.772 1.165 1.193 3.827h.952l1.535-1.571 3.241 2.381.631-.24 2.389-11.203-.544-.456zm-2.501 10.884-4.269-3.135-.476.648.875.642-1.242 1.248-.975-3.127 5.646-3.371-.412-.69-5.729 3.421-2.772-.856 11.455-4.634-2.102 9.855z"/><path stroke-width=".571" d="M1.143.286h29.714c.473 0 .857.384.857.857v29.714a.857.857 0 0 1-.857.857H1.143a.857.857 0 0 1-.857-.857V1.143c0-.473.384-.857.857-.857z"/></symbol><symbol id="icon-facebook" viewBox="0 0 32 32"><path d="M16.831 22.13h-1.975a.598.598 0 0 1-.598-.597v-4.446h-1.152a.598.598 0 0 1-.598-.597v-1.905c0-.329.268-.597.598-.597h1.152v-.954c0-.946.298-1.751.861-2.327.565-.579 1.356-.885 2.285-.885l1.506.002a.599.599 0 0 1 .597.597v1.769a.598.598 0 0 1-.598.597h-1.014c-.309 0-.388.062-.405.081-.028.031-.061.12-.061.366v.754h1.403a.599.599 0 0 1 .604.597l-.001 1.905a.598.598 0 0 1-.598.597h-1.408v4.446a.598.598 0 0 1-.598.597zm-1.85-.722h1.725v-4.644a.4.4 0 0 1 .399-.399h1.607l.001-1.656h-1.608a.4.4 0 0 1-.399-.399v-1.077c0-.282.029-.602.242-.843.258-.291.664-.325.947-.325h.889v-1.52l-1.381-.002c-1.494 0-2.422.954-2.422 2.491v1.277a.4.4 0 0 1-.399.399h-1.351v1.656h1.351a.4.4 0 0 1 .399.399v4.644zm3.927-10.862z"/><path stroke-width=".615" d="M1.231.308h29.538c.51 0 .923.413.923.923v29.538c0 .51-.413.923-.923.923H1.231a.923.923 0 0 1-.923-.923V1.231c0-.51.413-.923.923-.923z"/></symbol><symbol id="icon-isnta" viewBox="0 0 32 32"><path d="M18.822 9.846h-5.645a3.336 3.336 0 0 0-3.332 3.332v5.645a3.335 3.335 0 0 0 3.332 3.331h5.645a3.335 3.335 0 0 0 3.331-3.331v-5.645a3.336 3.336 0 0 0-3.332-3.332zm2.61 8.976a2.613 2.613 0 0 1-2.61 2.61h-5.645a2.613 2.613 0 0 1-2.61-2.61v-5.645a2.613 2.613 0 0 1 2.61-2.61h5.645a2.613 2.613 0 0 1 2.61 2.61v5.645z"/><path d="M16 12.635c-1.856 0-3.365 1.51-3.365 3.365s1.51 3.365 3.365 3.365c1.856 0 3.365-1.51 3.365-3.365s-1.51-3.365-3.365-3.365zm0 6.009c-1.458 0-2.644-1.186-2.644-2.644s1.186-2.644 2.644-2.644c1.458 0 2.644 1.186 2.644 2.644S17.458 18.644 16 18.644zM19.446 11.44a.995.995 0 0 0 0 1.988c.548 0 .995-.446.995-.994s-.446-.994-.995-.994zm0 1.267a.273.273 0 1 1 0-.547.273.273 0 0 1 0 .547z"/><path stroke-width=".615" d="M1.231.308h29.538c.51 0 .923.413.923.923v29.538c0 .51-.413.923-.923.923H1.231a.923.923 0 0 1-.923-.923V1.231c0-.51.413-.923.923-.923z"/></symbol><symbol id="icon-logo" viewBox="0 0 87 32"><path d="M10.581 6.933h5.76c.555 0 1.024-.469 1.024-1.024V3.69c0-.555-.469-1.024-1.024-1.024h-5.76C4.224 2.666 0 6.762 0 12.906c0 6.187 4.224 10.283 10.581 10.283.171 0 3.925-.043 5.76-.043.555 0 1.024-.427 1.024-.981v-2.261c0-.555-.469-1.024-1.024-1.024h-5.76c-3.285-.128-5.419-2.475-5.419-5.973s2.133-5.845 5.419-5.973zM31.105 2.667h-3.413c-1.707 0-3.157 1.323-3.328 3.029l-.043-2.133c-.043-.299-.256-.512-.555-.512h-3.755a.493.493 0 0 0-.512.512v18.731c0 .299.213.512.512.512h3.925a.493.493 0 0 0 .512-.512V12.225c0-6.357 5.419-4.864 6.827-4.949.213 0 .341-.171.341-.384V3.223c0-.299-.213-.555-.512-.555zM47.274 3.691v13.312c0 1.024-.853 1.877-1.92 1.877H43.05c-2.56 0-4.309-1.664-4.309-4.224V3.691a.629.629 0 0 0-.64-.64h-3.669a.629.629 0 0 0-.64.64v11.733c0 4.693 3.029 7.765 7.509 7.765h5.333c.341 0 .64.299.64.64v2.347c0 .341-.299.64-.64.64H34.602a.657.657 0 0 0-.64.64v2.773c0 .384.299.64.64.64h17.024c.341 0 .64-.256.64-.64V3.69a.657.657 0 0 0-.64-.64h-3.712a.657.657 0 0 0-.64.64zM64.827 18.88c-3.285 0-5.461-2.389-5.461-5.973V8.47c0-.853.725-1.536 1.579-1.536h3.968c3.157.043 5.333 2.432 5.333 5.931 0 3.627-2.219 6.016-5.419 6.016zm1.11-16.213H55.1c-.384 0-.683.341-.683.725v26.795c0 .384.299.683.683.683h3.584a.674.674 0 0 0 .683-.683v-8.363c0-.597.725-.939 1.195-.512 1.365 1.195 3.115 1.877 5.376 1.877 5.333 0 9.472-4.139 9.472-10.368 0-6.101-4.139-10.155-9.472-10.155zM77.409 20.885c0-1.052.256-1.792.768-2.219s1.124-.64 1.835-.64c.74 0 1.365.213 1.877.64.541.427.811 1.166.811 2.219 0 1.024-.27 1.764-.811 2.219-.512.455-1.138.683-1.877.683-.711 0-1.323-.227-1.835-.683s-.768-1.195-.768-2.219z"/><path stroke-width="1.333" d="m81.462 19.179.014.011c.31.245.557.737.557 1.695 0 .918-.241 1.429-.573 1.709l-.013.012c-.38.338-.844.514-1.435.514-.555 0-1.007-.172-1.392-.514-.311-.277-.544-.792-.544-1.72 0-.969.238-1.465.528-1.707.384-.32.841-.485 1.408-.485.602 0 1.072.17 1.451.485z"/></symbol><symbol id="icon-menu-btn" viewBox="0 0 32 32"><path d="M0 0h32v32H0V0z"/><path stroke-width=".5" d="M.25.25h31.5v31.5H.25V.25z"/><path d="M11.25 12.5h9.5a.25.25 0 0 1 .25.25V13a.25.25 0 0 1-.25.25h-9.5A.25.25 0 0 1 11 13v-.25a.25.25 0 0 1 .25-.25zM13.75 15.75h7A.25.25 0 0 1 21 16v.25a.25.25 0 0 1-.25.25h-7a.25.25 0 0 1-.25-.25V16a.25.25 0 0 1 .25-.25zM11.25 19h9.5a.25.25 0 0 1 .25.25v.25a.25.25 0 0 1-.25.25h-9.5a.25.25 0 0 1-.25-.25v-.25a.25.25 0 0 1 .25-.25z"/></symbol><symbol id="icon-send" viewBox="0 0 32 32"><path d="M30.731 2.118 0 14.55v1.797l8.802 2.717 2.784 8.931h2.222l3.583-3.666 7.563 5.555 1.472-.56 5.575-26.14-1.269-1.065zm-5.837 25.395-9.961-7.316-1.11 1.511 2.041 1.499-2.899 2.912-2.274-7.297 13.174-7.866-.961-1.61-13.368 7.982-6.467-1.997L29.798 4.518l-4.904 22.994z"/></symbol><symbol id="icon-tech1" viewBox="0 0 31 32"><path d="M21.847 9.244a8.33 8.33 0 0 0-4.743-1.472 8.345 8.345 0 0 0-7.46 4.568c-.233.455-.651.398-1.058.398a5.894 5.894 0 0 0-5.576 3.983.765.765 0 0 1-.484.462 3.762 3.762 0 0 0-2.522 3.714c.078 2.037 1.802 3.629 3.849 3.629h13.43a.459.459 0 1 0 0-.918H3.853c-1.558 0-2.873-1.232-2.931-2.746a2.847 2.847 0 0 1 1.909-2.812 1.675 1.675 0 0 0 1.048-1.031 4.976 4.976 0 0 1 4.707-3.363c.315 0 1.356.119 1.876-.898a7.43 7.43 0 0 1 6.642-4.067c1.517 0 2.977.453 4.222 1.31a.46.46 0 1 0 .521-.757zM25.236 23.606h-5.811a.459.459 0 1 0 0 .918h5.811c.096 0 .176-.002.289-.007a5.25 5.25 0 0 0 .918-.115c2.964-.602 4.959-3.024 4.903-5.996a5.997 5.997 0 0 0-6.21-5.881.752.752 0 0 1-.677-.388 8.368 8.368 0 0 0-.929-1.361.459.459 0 1 0-.704.59c.315.376.593.784.827 1.212.29.531.858.867 1.458.867l.058-.001a5.08 5.08 0 0 1 5.259 4.98c.055 2.868-2.36 5.182-5.191 5.182z"/><path d="M14.325 17.078c0 .142.015.258.042.343.031.085.069.177.123.277a.171.171 0 0 1 .027.088c0 .039-.023.077-.073.116l-.242.162a.186.186 0 0 1-.1.035c-.038 0-.077-.019-.115-.054a1.213 1.213 0 0 1-.139-.181 2.72 2.72 0 0 1-.119-.227c-.3.354-.678.531-1.132.531-.323 0-.581-.092-.77-.277s-.285-.431-.285-.739c0-.327.116-.593.35-.793s.547-.3.943-.3c.131 0 .266.012.408.031s.289.05.443.085v-.281c0-.293-.062-.497-.181-.616-.123-.119-.331-.177-.628-.177-.135 0-.273.015-.416.05s-.281.077-.416.131c-.062.027-.108.042-.135.05s-.046.012-.062.012c-.054 0-.081-.039-.081-.119v-.189c0-.062.008-.108.027-.135s.054-.054.108-.081a2.22 2.22 0 0 1 .485-.173 2.34 2.34 0 0 1 .601-.073c.458 0 .793.104 1.009.312.212.208.319.524.319.947v1.247h.008zm-1.563.585c.127 0 .258-.023.396-.069s.262-.131.366-.246c.062-.073.108-.154.131-.246s.039-.204.039-.335v-.162a3.133 3.133 0 0 0-.716-.088c-.258 0-.447.05-.574.154s-.189.25-.189.443c0 .181.046.316.142.408.092.096.227.142.404.142zm3.091.416c-.069 0-.115-.012-.146-.038-.031-.023-.058-.077-.081-.15l-.905-2.976a.687.687 0 0 1-.035-.154c0-.062.031-.096.092-.096h.377c.073 0 .123.012.15.039.031.023.054.077.077.15l.647 2.548.601-2.548c.019-.077.042-.127.073-.15s.085-.039.154-.039h.308c.073 0 .123.012.154.039.031.023.058.077.073.15L18 17.433l.666-2.579a.327.327 0 0 1 .077-.15.252.252 0 0 1 .15-.039h.358c.062 0 .096.031.096.096 0 .019-.004.038-.008.062s-.012.054-.027.096l-.928 2.976c-.023.077-.05.127-.081.15s-.081.038-.146.038h-.331c-.073 0-.123-.012-.154-.038s-.058-.077-.073-.154l-.597-2.483-.593 2.479c-.019.077-.042.127-.073.154s-.085.038-.154.038h-.331zm4.947.104c-.2 0-.4-.023-.593-.069s-.343-.096-.443-.154c-.062-.035-.104-.073-.119-.108s-.023-.073-.023-.108v-.196c0-.081.031-.119.089-.119.023 0 .046.004.069.012s.058.023.096.039c.131.058.273.104.423.135.154.031.304.046.458.046.243 0 .431-.042.562-.127s.2-.208.2-.366c0-.108-.035-.196-.104-.269s-.2-.139-.389-.2l-.558-.173c-.281-.089-.489-.219-.616-.393a.916.916 0 0 1-.088-.985.998.998 0 0 1 .277-.316c.115-.089.246-.154.4-.2s.316-.065.485-.065c.085 0 .173.004.258.015.089.011.169.027.25.042.077.019.15.038.219.062s.123.046.162.069a.338.338 0 0 1 .115.096.208.208 0 0 1 .035.127v.181c0 .081-.031.123-.088.123a.39.39 0 0 1-.146-.046c-.219-.1-.466-.15-.739-.15-.219 0-.393.035-.512.108s-.181.185-.181.343c0 .108.038.2.115.273s.219.146.423.212l.547.173c.277.089.477.212.597.37s.177.339.177.539a.996.996 0 0 1-.1.447 1.042 1.042 0 0 1-.281.339 1.245 1.245 0 0 1-.427.216 1.824 1.824 0 0 1-.55.081zM21.527 20.054c-1.266.935-3.107 1.432-4.689 1.432a8.481 8.481 0 0 1-5.724-2.183c-.119-.108-.011-.254.131-.169 1.632.947 3.645 1.521 5.728 1.521 1.405 0 2.949-.293 4.369-.893.212-.096.393.139.185.293z"/><path d="M22.055 19.453c-.162-.208-1.07-.1-1.482-.05-.123.015-.142-.092-.031-.173.724-.508 1.913-.362 2.052-.193.139.173-.038 1.363-.716 1.932-.104.089-.204.042-.158-.073.154-.381.497-1.239.335-1.444z"/></symbol><symbol id="icon-tech2" viewBox="0 0 32 32"><path d="M10.852 12.123a4.772 4.772 0 0 0-4.767 4.767c0 1.632.776 3.387 2.308 5.215.227.272.454.523.672.753-.989.27-1.582.755-1.582 1.321 0 1.002 1.736 1.542 3.37 1.542s3.37-.541 3.37-1.542c0-.565-.593-1.05-1.581-1.32a15.5 15.5 0 0 0 1.222-1.454.286.286 0 0 0-.459-.339 15.244 15.244 0 0 1-1.473 1.701.283.283 0 0 0-.124.123c-.412.405-.758.705-.955.869a15.74 15.74 0 0 1-.942-.858.283.283 0 0 0-.143-.142c-1.291-1.299-3.112-3.543-3.112-5.871 0-2.314 1.883-4.197 4.197-4.197s4.197 1.883 4.197 4.197c0 1.011-.344 2.102-1.024 3.244a.285.285 0 0 0 .49.292c.732-1.231 1.104-2.421 1.104-3.535a4.772 4.772 0 0 0-4.767-4.767zm-.175 12.23a.283.283 0 0 0 .35 0c.035-.027.511-.399 1.146-1.02.962.196 1.479.574 1.479.846 0 .203-.278.442-.726.625-.549.224-1.286.347-2.074.347-1.709 0-2.8-.576-2.8-.972 0-.272.517-.65 1.479-.846.639.625 1.116.996 1.146 1.02z"/><path d="M10.852 14.817c-.451 0-.88.142-1.24.412a.285.285 0 0 0 .341.457 1.504 1.504 0 1 1 .899 2.708 1.504 1.504 0 0 1-1.444-1.918.285.285 0 0 0-.548-.158 2.075 2.075 0 0 0 1.993 2.646c1.143 0 2.073-.93 2.073-2.073 0-1.143-.93-2.073-2.073-2.073zM23.277 14.562c.145-.156.295-.323.444-.502 1.187-1.418 1.789-2.781 1.789-4.051a3.734 3.734 0 0 0-3.73-3.73 3.726 3.726 0 0 0-3.437 2.278.285.285 0 1 0 .525.222 3.157 3.157 0 0 1 2.912-1.93 3.163 3.163 0 0 1 3.16 3.16c0 2.356-2.474 4.613-3.16 5.194a12.478 12.478 0 0 1-.668-.611.287.287 0 0 0-.127-.126c-.984-.991-2.364-2.695-2.364-4.457a.286.286 0 0 0-.57 0c0 1.27.602 2.633 1.789 4.051.15.179.299.347.444.502-.735.221-1.159.597-1.159 1.049 0 .382.31.718.872.947.481.196 1.115.304 1.784.304s1.303-.108 1.784-.304c.562-.229.872-.566.872-.947 0-.452-.425-.828-1.159-1.049zm-1.497 1.73c-1.35 0-2.086-.45-2.086-.681 0-.151.335-.426 1.05-.578.481.468.838.746.861.764a.283.283 0 0 0 .348 0c.023-.018.38-.296.861-.764a2.6 2.6 0 0 1 .788.285c.164.1.262.21.262.293 0 .231-.736.681-2.086.681z"/><path d="M21.78 8.349c-.915 0-1.659.744-1.659 1.659s.744 1.659 1.659 1.659 1.659-.744 1.659-1.659a1.66 1.66 0 0 0-1.659-1.659zm0 2.748a1.09 1.09 0 0 1 0-2.178 1.09 1.09 0 0 1 0 2.178zM18.082 15.326h-.13c-.095 0-.19.006-.283.019a.285.285 0 0 0 .037.568l.038-.002c.068-.009.138-.014.208-.014h.13a.286.286 0 0 0 0-.57zM17.139 23.88h-.001l-.377.002a.286.286 0 0 0 .001.57h.001l.377-.002a.285.285 0 0 0-.001-.57zM18.42 19.019h-.377a.286.286 0 0 0 0 .57h.377a.286.286 0 0 0 0-.57zM16.91 15.906a.285.285 0 0 0-.403-.016 2.113 2.113 0 0 0-.287.325.285.285 0 1 0 .463.333 1.59 1.59 0 0 1 .211-.238.285.285 0 0 0 .016-.403zM18.646 23.873h-.001l-.377.002a.285.285 0 0 0 .001.57h.001l.377-.002a.285.285 0 0 0-.001-.57zM15.633 23.886h-.001l-.377.002a.286.286 0 0 0 .001.57h.001l.377-.002a.286.286 0 0 0-.001-.57zM17.12 18.779a1.48 1.48 0 0 1-.25-.196.285.285 0 1 0-.395.411c.104.1.219.19.341.267a.283.283 0 0 0 .393-.089.285.285 0 0 0-.089-.393zM16.419 17.758a1.583 1.583 0 0 1-.029-.301v-.016a.284.284 0 0 0-.282-.288h-.003a.285.285 0 0 0-.285.282v.022c0 .138.013.276.039.41a.286.286 0 0 0 .335.226.284.284 0 0 0 .225-.334zM19.927 19.019h-.377a.286.286 0 0 0 0 .57h.377a.286.286 0 0 0 0-.57zM24.504 19.599a2.725 2.725 0 0 0-.349-.234.285.285 0 0 0-.28.496c.096.054.189.116.276.185a.286.286 0 0 0 .354-.448zM23.446 24.077a.285.285 0 0 0-.321-.243c-.093.013-.189.02-.284.02h-.053a.286.286 0 0 0 .001.57h.054a2.89 2.89 0 0 0 .36-.025.285.285 0 0 0 .243-.321zM24.704 23.275a.286.286 0 0 0-.403-.01c-.08.076-.167.147-.257.21a.285.285 0 0 0 .325.469c.115-.08.225-.169.326-.266a.286.286 0 0 0 .01-.403zM25.259 21.891a.285.285 0 0 0-.333.227c-.02.108-.05.216-.087.32a.284.284 0 0 0 .269.381.287.287 0 0 0 .269-.189c.047-.132.084-.268.11-.406a.285.285 0 0 0-.228-.333zM25.428 20.974a2.632 2.632 0 0 0-.148-.394.286.286 0 0 0-.517.241c.047.1.086.205.116.311a.286.286 0 0 0 .353.196.285.285 0 0 0 .195-.353zM21.433 19.019h-.377a.286.286 0 0 0 0 .57h.377a.286.286 0 0 0 0-.57zM20.152 23.866h-.001l-.377.002a.285.285 0 0 0 .001.57h.001l.377-.002a.286.286 0 0 0-.001-.57zM22.952 19.021a2.443 2.443 0 0 0-.121-.003h-.268a.286.286 0 0 0 0 .57h.268l.096.002h.013a.285.285 0 0 0 .013-.569zM21.658 23.859h-.001l-.377.002a.286.286 0 0 0 .001.57h.001l.377-.002a.286.286 0 0 0-.001-.57z"/></symbol><symbol id="icon-tech3" viewBox="0 0 30 32"><path d="M4.442 6.351c.198.18.462.115.649-.029a.46.46 0 1 0-.649.029zM2.957 8.449a.475.475 0 0 0 .633-.147.46.46 0 1 0-.633.147zM6.652 4.742c.351 0 .582-.45.366-.736a.46.46 0 1 0-.366.737zM1.884 10.785a.483.483 0 0 0 .595-.262.459.459 0 1 0-.594.262zM1.262 13.279c.227.044.494-.141.536-.368a.458.458 0 1 0-.903-.168.46.46 0 0 0 .367.536zM1.877 19.987a.46.46 0 0 0 .166.888c.292 0 .537-.345.429-.625a.46.46 0 0 0-.595-.263zM1.426 18.396a.458.458 0 1 0-.167-.903.46.46 0 0 0 .167.903zM1.11 15.845c.608-.021.608-.898 0-.919a.46.46 0 0 0 0 .919h.001zM27.018 22.456a.46.46 0 1 0-.492.777c.231.13.442.083.634-.141a.46.46 0 0 0-.142-.635zM26.685 7.799a.459.459 0 0 0-.154.631c.126.207.424.28.632.154a.46.46 0 0 0-.477-.785zM25.088 5.785a.46.46 0 0 0-.036.649c.211.191.427.203.649.036a.46.46 0 0 0-.613-.685zM28.113 20.132a.46.46 0 0 0-.597.255c-.113.281.133.63.426.63a.459.459 0 0 0 .171-.886zM28.936 15.08a.46.46 0 0 0-.464.455c-.003.274.224.427.459.464a.459.459 0 0 0 .004-.919zM28.046 10.961a.46.46 0 0 0 .43-.621c-.234-.562-1.055-.253-.86.323a.46.46 0 0 0 .43.298zM28.27 13.058c.04.227.304.415.532.373a.459.459 0 1 0-.532-.373zM25.513 24.541a.459.459 0 1 0-.626.672c.22.171.436.164.649-.023a.459.459 0 0 0-.023-.649zM28.759 17.643a.46.46 0 0 0-.54.362c-.05.26.19.548.451.548a.46.46 0 0 0 .088-.911zM16.116 28.804v-.001a.46.46 0 0 0-.421.495c.018.223.265.444.495.421a.46.46 0 0 0-.073-.916zM20.887 27.505a.46.46 0 0 0-.213.614.479.479 0 0 0 .614.213.46.46 0 1 0-.401-.827zM18.562 28.376a.46.46 0 0 0-.323.564.489.489 0 0 0 .564.323c.582-.18.351-1.026-.241-.887zM23.795 4.014h-.001a.459.459 0 1 0-.561.727c.226.152.441.124.645-.083a.459.459 0 0 0-.083-.644zM23.011 26.218a.46.46 0 0 0-.096.643c.201.21.415.242.643.096a.459.459 0 1 0-.547-.738zM13.631 28.777v-.001a.46.46 0 0 0-.504.41c-.025.244.211.507.458.507a.46.46 0 0 0 .046-.917z"/><path d="M23.375 15.484c0-.532-.232-1.01-.6-1.339.787-.707.788-1.978 0-2.684.787-.707.788-1.978 0-2.684 1.122-1.005.532-2.939-.972-3.13V2.169A1.844 1.844 0 0 0 19.961.327H14.14c-.594 0-.594.919 0 .919h5.821c.509 0 .923.414.923.923v.243H9.54v-.243c0-.509.414-.923.923-.923h1.166c.594 0 .594-.919 0-.919h-1.166a1.844 1.844 0 0 0-1.842 1.842v6.726C7.37 8.098 5.68 9.04 5.68 10.52v10.773l-.86.864a2.523 2.523 0 0 0-2.816.502 2.51 2.51 0 0 0 0 3.534l2.844 2.857c.419.421 1.07-.227.651-.648l-2.844-2.857a1.59 1.59 0 0 1 0-2.238 1.591 1.591 0 0 1 2.226 0l4.743 4.765a1.59 1.59 0 0 1 0 2.238c-.702.705-1.794.544-2.406-.181-.419-.421-1.07.227-.651.648 2.189 2.314 5.661-.266 4.012-2.984l.828-.831c2.486.19 4.901-1.183 6.016-3.415h2.538a1.844 1.844 0 0 0 1.842-1.842v-4.43a1.803 1.803 0 0 0 1.571-1.79zm-.919.006c0 .485-.395.88-.88.88h-.802c-1.168-.049-1.168-1.717 0-1.766h.802c.485 0 .88.395.88.886zm0-2.685c0 .485-.395.88-.88.88h-.802c-1.168-.049-1.168-1.717 0-1.766h.802c.485 0 .88.395.88.886zm0-2.684c0 .485-.395.88-.88.88h-.802c-1.168-.049-1.168-1.717 0-1.766h.802c.485 0 .88.395.88.886zm0-2.691c-.016.47-.394.886-.88.886h-.802c-1.168-.049-1.168-1.717 0-1.766h.802c.485 0 .88.395.88.88zm-1.571-4.1v2.302c-1.71-.084-2.566 2.011-1.31 3.144-.795.69-.794 1.995 0 2.684-.795.69-.794 1.995 0 2.684-1.257 1.133-.399 3.228 1.31 3.144v2.302h-8.711c-.291-1.567-1.194-3.039-2.632-3.79V3.33h11.344zM11.89 26.063l-.643-.03a.463.463 0 0 0-.347.135l-.936.94L5.576 22.7l.891-.895a.459.459 0 0 0 .134-.324V10.518c0-1.294 1.995-1.294 1.995 0v5.559a.46.46 0 0 0 .277.422c1.095.474 1.905 1.454 2.28 2.762.424 1.475.198 3.103-.59 4.249-.327.475.406 1.031.757.521.106-.155.204-.317.293-.485h4.761a5.238 5.238 0 0 1-4.483 2.518zm8.072-3.436h-7.965a6.245 6.245 0 0 0 .279-2.118h8.609v1.195a.924.924 0 0 1-.923.923z"/><path d="M10.854 6.812c.218.177.434.174.65-.009l1.345-1.38c.415-.425-.244-1.067-.658-.641l-1.345 1.38a.46.46 0 0 0 .008.65zM10.854 9.766c.218.177.434.174.65-.008l4.222-4.334c.415-.425-.244-1.067-.658-.641l-4.222 4.334a.46.46 0 0 0 .008.65z"/></symbol><symbol id="icon-tech4" viewBox="0 0 31 32"><path d="M18.117 13.544c-.013-.377-.557-.377-.57 0 0 .333-.328.496-.622.46v-.933a.286.286 0 0 0-.57 0v.933h-1.924v-.933a.286.286 0 0 0-.57 0v.933c-.295.034-.623-.119-.623-.46v-1.462c0-.629.368-1.187.931-1.438.661.64 1.786.639 2.446 0 .563.251.932.809.932 1.438a.286.286 0 0 0 .57 0c0-.81-.448-1.533-1.146-1.898a1.78 1.78 0 0 0 .213-.847v-1.28c-.104-2.372-3.481-2.37-3.584 0-.004.427 0 .854 0 1.28 0 .306.077.594.213.847a2.138 2.138 0 0 0-1.146 1.898v1.462c0 .568.462 1.03 1.03 1.03h3.39c.568 0 1.03-.462 1.03-1.03zm-2.727-2.987c-.673 0-1.22-.547-1.22-1.22v-.408l2.445-.516v.924c0 .673-.547 1.22-1.22 1.22h-.005zm.002-3.718c.597 0 1.095.43 1.201.996l-2.424.512v-.285c0-.674.548-1.222 1.222-1.222zM16.757 19.369h-.944v-2.298c0-.307-.438-.39-.55-.104l-1.5 3.812c-.075.191.079.389.265.389h.855v2.298c0 .302.432.389.548.11l1.59-3.812a.288.288 0 0 0-.263-.395zm-1.305 2.673v-1.159a.286.286 0 0 0-.285-.285h-.721l.797-2.025v1.081c0 .157.128.285.285.285h.802l-.877 2.104zM10.532 21.332a1.78 1.78 0 0 0 .213-.847v-1.278a1.792 1.792 0 0 0-3.585 0v1.278c0 .306.077.594.213.847a2.138 2.138 0 0 0-1.146 1.898.286.286 0 0 0 .57 0c0-.629.368-1.187.931-1.438.661.64 1.786.64 2.446 0 .563.251.932.809.932 1.438v1.462c0 .333-.328.496-.623.46v-.933a.286.286 0 0 0-.57 0v.933H7.989v-.933a.286.286 0 0 0-.57 0v.933c-.295.034-.622-.119-.622-.46a.286.286 0 0 0-.57 0c0 .568.462 1.03 1.03 1.03h3.389c.568 0 1.03-.462 1.03-1.03V23.23c0-.81-.448-1.533-1.146-1.898zm-1.581-3.345h.005c.596 0 1.093.43 1.199.996l-2.424.512v-.287c0-.673.547-1.22 1.22-1.22zm0 3.718c-.673 0-1.22-.547-1.22-1.22v-.408l2.445-.516v.924c0 .673-.547 1.22-1.22 1.22h-.005zM19.192 20.268a.286.286 0 0 0-.285-.285h-1.019c-.377.013-.377.557 0 .57h1.019a.286.286 0 0 0 .285-.285zM12.897 19.983h-1.019c-.377.013-.377.557 0 .57h1.019c.377-.013.377-.557 0-.57zM9.091 16.752a.298.298 0 0 0 .368-.163 5.636 5.636 0 0 1 2.263-2.733.285.285 0 1 0-.302-.484 6.206 6.206 0 0 0-2.493 3.011.285.285 0 0 0 .163.369zM19.062 13.856a5.631 5.631 0 0 1 2.263 2.733.3.3 0 0 0 .369.163.285.285 0 0 0 .163-.369 6.211 6.211 0 0 0-2.493-3.011.285.285 0 1 0-.302.484zM23.411 21.332a1.78 1.78 0 0 0 .213-.847v-1.278a1.792 1.792 0 0 0-3.585 0v1.278c0 .306.078.595.214.847a2.15 2.15 0 0 0-1.146 1.898v1.462c0 .568.462 1.03 1.03 1.03h3.389c.568 0 1.03-.462 1.03-1.03V23.23c0-.81-.448-1.533-1.146-1.898zm-2.802-.847v-.408l2.445-.516v.924c0 .299-.108.573-.287.785l-.005.006a1.22 1.22 0 0 1-.928.429h-.005c-.673 0-1.22-.547-1.22-1.22zm1.22-2.498h.005c.596 0 1.093.43 1.199.996l-2.424.512v-.287c0-.673.547-1.22 1.22-1.22zm2.157 6.705c0 .333-.328.496-.622.46v-.933a.286.286 0 0 0-.57 0v.933H20.87v-.933a.286.286 0 0 0-.57 0v.933c-.295.034-.622-.119-.622-.46V23.23c0-.623.37-1.186.931-1.438.661.64 1.786.64 2.446 0 .563.251.931.809.931 1.438v1.462z"/></symbol><symbol id="icon-twitter" viewBox="0 0 32 32"><path d="M14.529 21.089c-2.054 0-3.678-.359-4.454-.985l-.015-.012-.014-.014a.633.633 0 0 1-.166-.664l.007-.02a.644.644 0 0 1 .587-.404 5.323 5.323 0 0 0 1.402-.193c-.665-.31-1.128-.845-1.403-1.621a.575.575 0 0 1 .2-.67.579.579 0 0 1 .175-.089 3.885 3.885 0 0 1-.796-1.426l-.005-.016-.003-.016c-.052-.26.064-.527.277-.642a.594.594 0 0 1 .284-.08 3.03 3.03 0 0 1-.227-.692c-.126-.647-.022-1.296.308-1.928l.076-.153a.428.428 0 0 1 .682-.111l.139.139c1.099 1.152 2.083 1.698 3.784 2.072.076-.653.358-1.26.814-1.738a2.857 2.857 0 0 1 2.038-.898h.005c.564 0 1.262.322 1.685.549.363-.119.8-.302 1.253-.497a.57.57 0 0 1 .64.113.563.563 0 0 1 .122.618c-.033.092-.07.182-.112.27a.566.566 0 0 1 .167.115.619.619 0 0 1 .154.579l-.006.02c-.174.56-.507 1.016-.949 1.302-.074 3.925-3.029 7.093-6.652 7.093zm-3.762-1.386c.732.414 2.127.665 3.762.665 1.572 0 3.056-.675 4.178-1.901 1.131-1.236 1.754-2.877 1.754-4.621v-.02c0-.158.087-.302.227-.376.284-.15.514-.406.663-.734a.425.425 0 0 1-.41-.671c.059-.082.113-.167.161-.255-.391.164-.763.312-1.086.41a.458.458 0 0 1-.355-.038c-.575-.32-1.11-.511-1.432-.512-1.191.018-2.159 1.038-2.159 2.274a.426.426 0 0 1-.508.418c-1.962-.386-3.124-.966-4.333-2.181a2.125 2.125 0 0 0-.14 1.246c.081.418.297.837.625 1.212.125.142.141.346.041.506s-.289.235-.471.186a1.966 1.966 0 0 1-.397-.152 3.595 3.595 0 0 0 1.233 1.43.426.426 0 0 1-.272.776 1.901 1.901 0 0 1-.565-.122c.306.623.795.966 1.549 1.097a.427.427 0 0 1 .127.796c-.642.34-1.344.523-2.191.568z"/><path stroke-width=".615" d="M1.231.308h29.538c.51 0 .923.413.923.923v29.538c0 .51-.413.923-.923.923H1.231a.923.923 0 0 1-.923-.923V1.231c0-.51.413-.923.923-.923z"/></symbol></defs></svg>