<svg xmlns="http://www.w3.org/2000/svg" aria-hidden="true" style="position:absolute;width:0;height:0;overflow:hidden"><defs><symbol id="icon-arrow" viewBox="0 0 32 32"><path d="M0 22.667V9.334A9.333 9.333 0 0 1 9.333.001h13.333a9.333 9.333 0 0 1 9.333 9.333v13.333A9.333 9.333 0 0 1 22.666 32H9.333A9.333 9.333 0 0 1 0 22.667z"/><path stroke-linecap="square" stroke-width="2.133" d="m18.667 16-5.333-4 4.667 4m.666 0-5.333 4 4.667-4m.666 0H18"/></symbol><symbol id="icon-logo" viewBox="0 0 87 32"><path d="M10.581 6.933h5.76c.555 0 1.024-.469 1.024-1.024V3.69c0-.555-.469-1.024-1.024-1.024h-5.76C4.224 2.666 0 6.762 0 12.906c0 6.187 4.224 10.283 10.581 10.283.171 0 3.925-.043 5.76-.043.555 0 1.024-.427 1.024-.981v-2.261c0-.555-.469-1.024-1.024-1.024h-5.76c-3.285-.128-5.419-2.475-5.419-5.973s2.133-5.845 5.419-5.973zM31.105 2.667h-3.413c-1.707 0-3.157 1.323-3.328 3.029l-.043-2.133c-.043-.299-.256-.512-.555-.512h-3.755a.493.493 0 0 0-.512.512v18.731c0 .299.213.512.512.512h3.925a.493.493 0 0 0 .512-.512V12.225c0-6.357 5.419-4.864 6.827-4.949.213 0 .341-.171.341-.384V3.223c0-.299-.213-.555-.512-.555zM47.274 3.691v13.312c0 1.024-.853 1.877-1.92 1.877H43.05c-2.56 0-4.309-1.664-4.309-4.224V3.691a.629.629 0 0 0-.64-.64h-3.669a.629.629 0 0 0-.64.64v11.733c0 4.693 3.029 7.765 7.509 7.765h5.333c.341 0 .64.299.64.64v2.347c0 .341-.299.64-.64.64H34.602a.657.657 0 0 0-.64.64v2.773c0 .384.299.64.64.64h17.024c.341 0 .64-.256.64-.64V3.69a.657.657 0 0 0-.64-.64h-3.712a.657.657 0 0 0-.64.64zM64.827 18.88c-3.285 0-5.461-2.389-5.461-5.973V8.47c0-.853.725-1.536 1.579-1.536h3.968c3.157.043 5.333 2.432 5.333 5.931 0 3.627-2.219 6.016-5.419 6.016zm1.11-16.213H55.1c-.384 0-.683.341-.683.725v26.795c0 .384.299.683.683.683h3.584a.674.674 0 0 0 .683-.683v-8.363c0-.597.725-.939 1.195-.512 1.365 1.195 3.115 1.877 5.376 1.877 5.333 0 9.472-4.139 9.472-10.368 0-6.101-4.139-10.155-9.472-10.155zM77.409 20.885c0-1.052.256-1.792.768-2.219s1.124-.64 1.835-.64c.74 0 1.365.213 1.877.64.541.427.811 1.166.811 2.219 0 1.024-.27 1.764-.811 2.219-.512.455-1.138.683-1.877.683-.711 0-1.323-.227-1.835-.683s-.768-1.195-.768-2.219z"/><path stroke-width="1.333" d="m81.462 19.179.014.011c.31.245.557.737.557 1.695 0 .918-.241 1.429-.573 1.709l-.013.012c-.38.338-.844.514-1.435.514-.555 0-1.007-.172-1.392-.514-.311-.277-.544-.792-.544-1.72 0-.969.238-1.465.528-1.707.384-.32.841-.485 1.408-.485.602 0 1.072.17 1.451.485z"/></symbol><symbol id="icon-nfc-tag" viewBox="0 0 41 32"><path d="M11.52 4.48h18.56a6.4 6.4 0 0 1 6.4 6.4v9.6a6.4 6.4 0 0 1-6.4 6.4H11.52a6.4 6.4 0 0 1-6.4-6.4v-9.6a6.4 6.4 0 0 1 6.4-6.4z"/><path d="M17.915 18.56H16.84l-2.435-3.679v3.679H13.33v-5.368h1.075l2.435 3.686v-3.686h1.075v5.368zm4.373-5.361v.868h-2.235v1.375h1.713v.852h-1.713v2.266h-1.075v-5.361h3.31zm.501 2.673c0-.527.118-.998.353-1.413a2.55 2.55 0 0 1 .975-.975 2.76 2.76 0 0 1 1.39-.353c.599 0 1.124.154 1.574.461s.765.732.945 1.275H26.79a1.276 1.276 0 0 0-.522-.576 1.5 1.5 0 0 0-.768-.192c-.312 0-.591.074-.837.223-.241.143-.43.348-.568.614-.133.266-.2.579-.2.937 0 .353.067.666.2.937.138.266.328.474.568.622.246.143.525.215.837.215a1.5 1.5 0 0 0 .768-.192c.225-.133.399-.328.522-.584h1.236a2.41 2.41 0 0 1-.945 1.283c-.445.302-.97.453-1.574.453-.512 0-.975-.115-1.39-.346a2.622 2.622 0 0 1-.975-.975 2.807 2.807 0 0 1-.353-1.413z"/><path stroke-width=".64" d="M11.52 4.8h18.56a6.08 6.08 0 0 1 6.08 6.08v9.6a6.08 6.08 0 0 1-6.08 6.08H11.52a6.08 6.08 0 0 1-6.08-6.08v-9.6a6.08 6.08 0 0 1 6.08-6.08z"/></symbol><symbol id="icon-plus" viewBox="0 0 32 32"><path d="M8 0h16a8 8 0 0 1 8 8v16a8 8 0 0 1-8 8H8a8 8 0 0 1-8-8V8a8 8 0 0 1 8-8z"/><path stroke-width=".8" d="M8 .4h16A7.6 7.6 0 0 1 31.6 8v16a7.6 7.6 0 0 1-7.6 7.6H8A7.6 7.6 0 0 1 .4 24V8A7.6 7.6 0 0 1 8 .4z"/><path d="M15.2 11.2h1.6v9.6h-1.6v-9.6z"/><path d="M20.8 15.2v1.6h-9.6v-1.6h9.6z"/></symbol></defs></svg>